<?xml version="1.0" encoding="utf-8"?>
<!-- Generator: Adobe Illustrator 18.0.0, SVG Export Plug-In . SVG Version: 6.00 Build 0)  -->
<!DOCTYPE svg PUBLIC "-//W3C//DTD SVG 1.1//EN" "http://www.w3.org/Graphics/SVG/1.1/DTD/svg11.dtd">
<svg version="1.1" id="Layer_1" xmlns="http://www.w3.org/2000/svg" xmlns:xlink="http://www.w3.org/1999/xlink" x="0px" y="0px"
	 viewBox="0 0 20 41" enable-background="new 0 0 20 41" xml:space="preserve">
<g>
	<path d="M14.2,13.9c0,0,2.5-1,3.3-3.8C18.3,7.3,16.4,5,16.4,5s-2.3,1.2-3.1,4.1C12.5,12,14.2,13.9,14.2,13.9L14.2,13.9z M14.2,13.9
		"/>
	<path d="M5.5,13.3c1.7,2.3,4.5,2.3,4.5,2.3s0.9-2.4-0.9-4.8C7.3,8.5,4.7,8.2,4.7,8.2S3.7,11,5.5,13.3L5.5,13.3z M5.5,13.3"/>
	<path d="M6,20.8c1.4,2.5,4.2,2.9,4.2,2.9s1.2-2.3-0.3-4.8c-1.5-2.6-4-3.3-4-3.3S4.6,18.3,6,20.8L6,20.8z M6,20.8"/>
	<path d="M3.5,26.7C4.7,29.3,7.3,30,7.3,30s1.4-2.1,0.2-4.9c-1.2-2.7-3.6-3.6-3.6-3.6S2.3,24,3.5,26.7L3.5,26.7z M3.5,26.7"/>
	<path d="M0.3,32.1C0.7,35,3,36.4,3,36.4s2-1.6,1.6-4.6c-0.4-3-2.5-4.5-2.5-4.5S-0.1,29.2,0.3,32.1L0.3,32.1z M0.3,32.1"/>
	<path d="M11,3.7C10.1,1,7.2,0.2,7.2,0.2S6,2.5,6.9,5.3c0.9,2.8,3.4,3.5,3.4,3.5S11.9,6.5,11,3.7L11,3.7z M11,3.7"/>
	<path d="M15.2,15.2c-1.6,2.5-0.5,4.8-0.5,4.8s2.7-0.2,4.3-2.7c1.6-2.4,0.4-5.2,0.4-5.2S16.8,12.7,15.2,15.2L15.2,15.2z M15.2,15.2"
		/>
	<path d="M14.7,21.9c-2.1,2.1-1.6,4.6-1.6,4.6s2.7,0.4,4.8-1.6c2.1-2,1.5-5,1.5-5S16.8,19.8,14.7,21.9L14.7,21.9z M14.7,21.9"/>
	<path d="M13.3,28c-2.7,1.3-2.9,3.9-2.9,3.9s2.5,1.2,5.1-0.1c2.6-1.3,3-4.3,3-4.3S16,26.6,13.3,28L13.3,28z M13.3,28"/>
	<path d="M9.3,34.1c-2.8,1-3.4,3.5-3.4,3.5s2.3,1.5,5,0.5c2.7-1,3.4-3.9,3.4-3.9S12.1,33.1,9.3,34.1L9.3,34.1z M9.3,34.1"/>
	<path d="M11.4,9.8l-1.2,0.7c0.3,0.5,7,12.6-9.3,28.9l1,1C19,23.3,11.4,9.9,11.4,9.8L11.4,9.8z M11.4,9.8"/>
</g>
</svg>
