<?xml version="1.0" encoding="utf-8"?>
<!-- Generator: Adobe Illustrator 18.0.0, SVG Export Plug-In . SVG Version: 6.00 Build 0)  -->
<!DOCTYPE svg PUBLIC "-//W3C//DTD SVG 1.1//EN" "http://www.w3.org/Graphics/SVG/1.1/DTD/svg11.dtd">
<svg version="1.1" id="Layer_1" xmlns="http://www.w3.org/2000/svg" xmlns:xlink="http://www.w3.org/1999/xlink" x="0px" y="0px"
	 viewBox="0 0 20 41" enable-background="new 0 0 20 41" xml:space="preserve">
<g>
	<path fill="#FFFFFF" d="M5.8,13.9c0,0,1.7-1.9,0.9-4.8C5.9,6.2,3.6,5,3.6,5s-1.9,2.3-1.2,5.1C3.3,12.9,5.8,13.9,5.8,13.9L5.8,13.9z
		 M5.8,13.9"/>
	<path fill="#FFFFFF" d="M14.5,13.3c1.7-2.3,0.8-5.1,0.8-5.1s-2.6,0.3-4.4,2.7c-1.8,2.4-0.9,4.8-0.9,4.8S12.8,15.6,14.5,13.3
		L14.5,13.3z M14.5,13.3"/>
	<path fill="#FFFFFF" d="M14,20.8c1.4-2.5,0.1-5.2,0.1-5.2s-2.5,0.7-4,3.3c-1.5,2.6-0.3,4.8-0.3,4.8S12.6,23.3,14,20.8L14,20.8z
		 M14,20.8"/>
	<path fill="#FFFFFF" d="M16.5,26.7c1.2-2.7-0.4-5.2-0.4-5.2s-2.4,0.9-3.6,3.6c-1.2,2.7,0.2,4.9,0.2,4.9S15.3,29.3,16.5,26.7
		L16.5,26.7z M16.5,26.7"/>
	<path fill="#FFFFFF" d="M19.7,32.1c0.4-2.9-1.9-4.8-1.9-4.8s-2.1,1.6-2.5,4.5c-0.4,3,1.6,4.6,1.6,4.6S19.3,35,19.7,32.1L19.7,32.1z
		 M19.7,32.1"/>
	<path fill="#FFFFFF" d="M9,3.7c-0.9,2.8,0.7,5,0.7,5s2.5-0.6,3.4-3.5c0.9-2.8-0.3-5.1-0.3-5.1S9.9,1,9,3.7L9,3.7z M9,3.7"/>
	<path fill="#FFFFFF" d="M4.8,15.2c-1.6-2.5-4.2-3-4.2-3s-1.2,2.7,0.4,5.2C2.6,19.8,5.4,20,5.4,20S6.4,17.7,4.8,15.2L4.8,15.2z
		 M4.8,15.2"/>
	<path fill="#FFFFFF" d="M5.3,21.9c-2.1-2.1-4.7-2-4.7-2s-0.6,2.9,1.5,5c2.1,2,4.8,1.6,4.8,1.6S7.4,24,5.3,21.9L5.3,21.9z M5.3,21.9
		"/>
	<path fill="#FFFFFF" d="M6.7,28c-2.7-1.3-5.1-0.5-5.1-0.5s0.4,3,3,4.3c2.6,1.3,5.1,0.1,5.1,0.1S9.3,29.3,6.7,28L6.7,28z M6.7,28"/>
	<path fill="#FFFFFF" d="M10.7,34.1c-2.8-1-5.1,0.1-5.1,0.1s0.7,2.9,3.4,3.9c2.7,1,5-0.5,5-0.5S13.5,35.1,10.7,34.1L10.7,34.1z
		 M10.7,34.1"/>
	<path fill="#FFFFFF" d="M8.6,9.8C8.6,9.9,1,23.3,18.2,40.4l1-1C2.8,23.1,9.6,11,9.9,10.5L8.6,9.8L8.6,9.8z M8.6,9.8"/>
</g>
</svg>
